<?xml version="1.0" encoding="UTF-8" standalone="no"?>
<!DOCTYPE svg PUBLIC "-//W3C//DTD SVG 1.1//EN"
 "http://www.w3.org/Graphics/SVG/1.1/DTD/svg11.dtd">
<!-- Generated by graphviz version 2.38.0 (20140413.2041)
 -->
<!-- Title: Nodes Pages: 1 -->
<svg width="1173pt" height="332pt"
 viewBox="0.00 0.00 1172.84 332.00" xmlns="http://www.w3.org/2000/svg" xmlns:xlink="http://www.w3.org/1999/xlink">
<g id="graph0" class="graph" transform="scale(1 1) rotate(0) translate(4 328)">
<title>Nodes</title>
<polygon fill="white" stroke="none" points="-4,4 -4,-328 1168.84,-328 1168.84,4 -4,4"/>
<!-- main -->
<g id="node1" class="node"><title>main</title>
<ellipse fill="none" stroke="black" cx="438.843" cy="-306" rx="27.8951" ry="18"/>
<text text-anchor="middle" x="438.843" y="-302.3" font-family="Times New Roman,serif" font-size="14.00">main</text>
</g>
<!-- free -->
<g id="node2" class="node"><title>free</title>
<ellipse fill="none" stroke="black" cx="115.843" cy="-234" rx="27" ry="18"/>
<text text-anchor="middle" x="115.843" y="-230.3" font-family="Times New Roman,serif" font-size="14.00">free</text>
</g>
<!-- main&#45;&gt;free -->
<g id="edge1" class="edge"><title>main&#45;&gt;free</title>
<path fill="none" stroke="black" d="M411.36,-302.316C359.575,-296.739 244.433,-281.853 151.843,-252 149.918,-251.38 147.964,-250.679 146.011,-249.925"/>
<polygon fill="black" stroke="black" points="146.982,-246.534 136.411,-245.828 144.235,-252.972 146.982,-246.534"/>
</g>
<!-- getInternalHexFromDouble -->
<g id="node3" class="node"><title>getInternalHexFromDouble</title>
<ellipse fill="none" stroke="black" cx="438.843" cy="-234" rx="109.381" ry="18"/>
<text text-anchor="middle" x="438.843" y="-230.3" font-family="Times New Roman,serif" font-size="14.00">getInternalHexFromDouble</text>
</g>
<!-- main&#45;&gt;getInternalHexFromDouble -->
<g id="edge2" class="edge"><title>main&#45;&gt;getInternalHexFromDouble</title>
<path fill="none" stroke="black" d="M438.843,-287.697C438.843,-279.983 438.843,-270.712 438.843,-262.112"/>
<polygon fill="black" stroke="black" points="442.343,-262.104 438.843,-252.104 435.343,-262.104 442.343,-262.104"/>
</g>
<!-- getInternalHexFromFloat -->
<g id="node8" class="node"><title>getInternalHexFromFloat</title>
<ellipse fill="none" stroke="black" cx="667.843" cy="-234" rx="101.282" ry="18"/>
<text text-anchor="middle" x="667.843" y="-230.3" font-family="Times New Roman,serif" font-size="14.00">getInternalHexFromFloat</text>
</g>
<!-- main&#45;&gt;getInternalHexFromFloat -->
<g id="edge7" class="edge"><title>main&#45;&gt;getInternalHexFromFloat</title>
<path fill="none" stroke="black" d="M463.786,-297.376C498.525,-286.756 562.507,-267.199 609.597,-252.804"/>
<polygon fill="black" stroke="black" points="610.833,-256.087 619.373,-249.816 608.786,-249.392 610.833,-256.087"/>
</g>
<!-- getInternalHexFromLong -->
<g id="node9" class="node"><title>getInternalHexFromLong</title>
<ellipse fill="none" stroke="black" cx="888.843" cy="-234" rx="102.082" ry="18"/>
<text text-anchor="middle" x="888.843" y="-230.3" font-family="Times New Roman,serif" font-size="14.00">getInternalHexFromLong</text>
</g>
<!-- main&#45;&gt;getInternalHexFromLong -->
<g id="edge9" class="edge"><title>main&#45;&gt;getInternalHexFromLong</title>
<path fill="none" stroke="black" d="M465.644,-300.831C531.108,-290.648 701.342,-264.167 804.858,-248.064"/>
<polygon fill="black" stroke="black" points="805.628,-251.487 814.971,-246.491 804.552,-244.57 805.628,-251.487"/>
</g>
<!-- printCursorInLine -->
<g id="node10" class="node"><title>printCursorInLine</title>
<ellipse fill="none" stroke="black" cx="235.843" cy="-234" rx="75.2868" ry="18"/>
<text text-anchor="middle" x="235.843" y="-230.3" font-family="Times New Roman,serif" font-size="14.00">printCursorInLine</text>
</g>
<!-- main&#45;&gt;printCursorInLine -->
<g id="edge11" class="edge"><title>main&#45;&gt;printCursorInLine</title>
<path fill="none" stroke="black" d="M414.759,-296.695C383.353,-285.866 327.604,-266.642 286.658,-252.522"/>
<polygon fill="black" stroke="black" points="287.71,-249.183 277.116,-249.232 285.428,-255.801 287.71,-249.183"/>
</g>
<!-- getInternalHexFromOperand -->
<g id="node4" class="node"><title>getInternalHexFromOperand</title>
<ellipse fill="none" stroke="black" cx="552.843" cy="-162" rx="114.28" ry="18"/>
<text text-anchor="middle" x="552.843" y="-158.3" font-family="Times New Roman,serif" font-size="14.00">getInternalHexFromOperand</text>
</g>
<!-- getInternalHexFromDouble&#45;&gt;getInternalHexFromOperand -->
<g id="edge3" class="edge"><title>getInternalHexFromDouble&#45;&gt;getInternalHexFromOperand</title>
<path fill="none" stroke="black" d="M465.859,-216.411C481.081,-207.064 500.291,-195.268 516.784,-185.141"/>
<polygon fill="black" stroke="black" points="518.935,-187.928 525.625,-179.713 515.272,-181.963 518.935,-187.928"/>
</g>
<!-- isBigEndian -->
<g id="node5" class="node"><title>isBigEndian</title>
<ellipse fill="none" stroke="black" cx="441.843" cy="-90" rx="53.8905" ry="18"/>
<text text-anchor="middle" x="441.843" y="-86.3" font-family="Times New Roman,serif" font-size="14.00">isBigEndian</text>
</g>
<!-- getInternalHexFromOperand&#45;&gt;isBigEndian -->
<g id="edge4" class="edge"><title>getInternalHexFromOperand&#45;&gt;isBigEndian</title>
<path fill="none" stroke="black" d="M526.537,-144.411C511.067,-134.655 491.365,-122.231 474.858,-111.82"/>
<polygon fill="black" stroke="black" points="476.388,-108.648 466.063,-106.274 472.654,-114.569 476.388,-108.648"/>
</g>
<!-- writeHexfromChar -->
<g id="node6" class="node"><title>writeHexfromChar</title>
<ellipse fill="none" stroke="black" cx="591.843" cy="-90" rx="77.9862" ry="18"/>
<text text-anchor="middle" x="591.843" y="-86.3" font-family="Times New Roman,serif" font-size="14.00">writeHexfromChar</text>
</g>
<!-- getInternalHexFromOperand&#45;&gt;writeHexfromChar -->
<g id="edge5" class="edge"><title>getInternalHexFromOperand&#45;&gt;writeHexfromChar</title>
<path fill="none" stroke="black" d="M562.283,-144.055C566.767,-136.007 572.229,-126.205 577.231,-117.226"/>
<polygon fill="black" stroke="black" points="580.408,-118.714 582.218,-108.275 574.293,-115.308 580.408,-118.714"/>
</g>
<!-- getCharFrom4Bits -->
<g id="node7" class="node"><title>getCharFrom4Bits</title>
<ellipse fill="none" stroke="black" cx="591.843" cy="-18" rx="77.1866" ry="18"/>
<text text-anchor="middle" x="591.843" y="-14.3" font-family="Times New Roman,serif" font-size="14.00">getCharFrom4Bits</text>
</g>
<!-- writeHexfromChar&#45;&gt;getCharFrom4Bits -->
<g id="edge6" class="edge"><title>writeHexfromChar&#45;&gt;getCharFrom4Bits</title>
<path fill="none" stroke="black" d="M591.843,-71.6966C591.843,-63.9827 591.843,-54.7125 591.843,-46.1124"/>
<polygon fill="black" stroke="black" points="595.343,-46.1043 591.843,-36.1043 588.343,-46.1044 595.343,-46.1043"/>
</g>
<!-- getInternalHexFromFloat&#45;&gt;getInternalHexFromOperand -->
<g id="edge8" class="edge"><title>getInternalHexFromFloat&#45;&gt;getInternalHexFromOperand</title>
<path fill="none" stroke="black" d="M640.88,-216.588C625.42,-207.178 605.811,-195.242 589.025,-185.024"/>
<polygon fill="black" stroke="black" points="590.396,-181.761 580.034,-179.552 586.757,-187.741 590.396,-181.761"/>
</g>
<!-- getInternalHexFromLong&#45;&gt;getInternalHexFromOperand -->
<g id="edge10" class="edge"><title>getInternalHexFromLong&#45;&gt;getInternalHexFromOperand</title>
<path fill="none" stroke="black" d="M825.644,-219.834C769.846,-208.209 688.367,-191.234 628.991,-178.864"/>
<polygon fill="black" stroke="black" points="629.42,-175.379 618.917,-176.765 627.993,-182.232 629.42,-175.379"/>
</g>
<!-- if -->
<g id="node11" class="node"><title>if</title>
<ellipse fill="none" stroke="black" cx="87.8426" cy="-306" rx="27" ry="18"/>
<text text-anchor="middle" x="87.8426" y="-302.3" font-family="Times New Roman,serif" font-size="14.00">if</text>
</g>
<!-- if&#45;&gt;free -->
<g id="edge12" class="edge"><title>if&#45;&gt;free</title>
<path fill="none" stroke="black" d="M94.4782,-288.411C97.756,-280.216 101.787,-270.14 105.461,-260.955"/>
<polygon fill="black" stroke="black" points="108.79,-262.055 109.255,-251.47 102.291,-259.455 108.79,-262.055"/>
</g>
<!-- if&#45;&gt;getInternalHexFromOperand -->
<g id="edge17" class="edge"><title>if&#45;&gt;getInternalHexFromOperand</title>
<path fill="none" stroke="black" d="M79.9339,-288.621C71.6693,-268.842 62.1594,-235.775 79.8426,-216 81.3854,-214.275 312.703,-188.977 451.239,-173.966"/>
<polygon fill="black" stroke="black" points="451.896,-177.416 461.46,-172.859 451.142,-170.456 451.896,-177.416"/>
</g>
<!-- switch -->
<g id="node12" class="node"><title>switch</title>
<ellipse fill="none" stroke="black" cx="667.843" cy="-306" rx="34.394" ry="18"/>
<text text-anchor="middle" x="667.843" y="-302.3" font-family="Times New Roman,serif" font-size="14.00">switch</text>
</g>
<!-- switch&#45;&gt;getInternalHexFromDouble -->
<g id="edge13" class="edge"><title>switch&#45;&gt;getInternalHexFromDouble</title>
<path fill="none" stroke="black" d="M638.84,-296.134C603.632,-285.372 543.368,-266.951 498.173,-253.136"/>
<polygon fill="black" stroke="black" points="499.07,-249.75 488.484,-250.174 497.024,-256.445 499.07,-249.75"/>
</g>
<!-- switch&#45;&gt;getInternalHexFromFloat -->
<g id="edge14" class="edge"><title>switch&#45;&gt;getInternalHexFromFloat</title>
<path fill="none" stroke="black" d="M667.843,-287.697C667.843,-279.983 667.843,-270.712 667.843,-262.112"/>
<polygon fill="black" stroke="black" points="671.343,-262.104 667.843,-252.104 664.343,-262.104 671.343,-262.104"/>
</g>
<!-- switch&#45;&gt;getInternalHexFromLong -->
<g id="edge15" class="edge"><title>switch&#45;&gt;getInternalHexFromLong</title>
<path fill="none" stroke="black" d="M696.734,-295.849C730.89,-285.03 788.548,-266.768 831.805,-253.066"/>
<polygon fill="black" stroke="black" points="832.88,-256.397 841.356,-250.041 830.766,-249.724 832.88,-256.397"/>
</g>
<!-- __declspec -->
<g id="node13" class="node"><title>__declspec</title>
<ellipse fill="none" stroke="black" cx="1086.84" cy="-306" rx="52.7911" ry="18"/>
<text text-anchor="middle" x="1086.84" y="-302.3" font-family="Times New Roman,serif" font-size="14.00">__declspec</text>
</g>
<!-- getSizeOfOperand -->
<g id="node14" class="node"><title>getSizeOfOperand</title>
<ellipse fill="none" stroke="black" cx="1086.84" cy="-234" rx="77.9862" ry="18"/>
<text text-anchor="middle" x="1086.84" y="-230.3" font-family="Times New Roman,serif" font-size="14.00">getSizeOfOperand</text>
</g>
<!-- __declspec&#45;&gt;getSizeOfOperand -->
<g id="edge16" class="edge"><title>__declspec&#45;&gt;getSizeOfOperand</title>
<path fill="none" stroke="black" d="M1086.84,-287.697C1086.84,-279.983 1086.84,-270.712 1086.84,-262.112"/>
<polygon fill="black" stroke="black" points="1090.34,-262.104 1086.84,-252.104 1083.34,-262.104 1090.34,-262.104"/>
</g>
<!-- setInternalHexToOperand -->
<g id="node15" class="node"><title>setInternalHexToOperand</title>
<ellipse fill="none" stroke="black" cx="277.843" cy="-162" rx="104.782" ry="18"/>
<text text-anchor="middle" x="277.843" y="-158.3" font-family="Times New Roman,serif" font-size="14.00">setInternalHexToOperand</text>
</g>
<!-- setInternalHexToOperand&#45;&gt;isBigEndian -->
<g id="edge20" class="edge"><title>setInternalHexToOperand&#45;&gt;isBigEndian</title>
<path fill="none" stroke="black" d="M315.057,-145.116C340.56,-134.23 374.401,-119.786 400.705,-108.559"/>
<polygon fill="black" stroke="black" points="402.202,-111.725 410.026,-104.58 399.454,-105.287 402.202,-111.725"/>
</g>
<!-- checkNumeralString -->
<g id="node16" class="node"><title>checkNumeralString</title>
<ellipse fill="none" stroke="black" cx="83.8426" cy="-90" rx="83.6854" ry="18"/>
<text text-anchor="middle" x="83.8426" y="-86.3" font-family="Times New Roman,serif" font-size="14.00">checkNumeralString</text>
</g>
<!-- setInternalHexToOperand&#45;&gt;checkNumeralString -->
<g id="edge18" class="edge"><title>setInternalHexToOperand&#45;&gt;checkNumeralString</title>
<path fill="none" stroke="black" d="M234.788,-145.465C205.174,-134.779 165.724,-120.545 134.581,-109.308"/>
<polygon fill="black" stroke="black" points="135.379,-105.875 124.785,-105.773 133.003,-112.459 135.379,-105.875"/>
</g>
<!-- get4BitsFromHexChar -->
<g id="node17" class="node"><title>get4BitsFromHexChar</title>
<ellipse fill="none" stroke="black" cx="277.843" cy="-90" rx="92.0841" ry="18"/>
<text text-anchor="middle" x="277.843" y="-86.3" font-family="Times New Roman,serif" font-size="14.00">get4BitsFromHexChar</text>
</g>
<!-- setInternalHexToOperand&#45;&gt;get4BitsFromHexChar -->
<g id="edge19" class="edge"><title>setInternalHexToOperand&#45;&gt;get4BitsFromHexChar</title>
<path fill="none" stroke="black" d="M277.843,-143.697C277.843,-135.983 277.843,-126.712 277.843,-118.112"/>
<polygon fill="black" stroke="black" points="281.343,-118.104 277.843,-108.104 274.343,-118.104 281.343,-118.104"/>
</g>
</g>
</svg>
