<?xml version="1.0" encoding="UTF-8" standalone="no"?>
<!DOCTYPE svg PUBLIC "-//W3C//DTD SVG 1.1//EN"
 "http://www.w3.org/Graphics/SVG/1.1/DTD/svg11.dtd">
<!-- Generated by graphviz version 2.38.0 (20140413.2041)
 -->
<!-- Title: Nodes Pages: 1 -->
<svg width="904pt" height="332pt"
 viewBox="0.00 0.00 904.48 332.00" xmlns="http://www.w3.org/2000/svg" xmlns:xlink="http://www.w3.org/1999/xlink">
<g id="graph0" class="graph" transform="scale(1 1) rotate(0) translate(4 328)">
<title>Nodes</title>
<polygon fill="white" stroke="none" points="-4,4 -4,-328 900.482,-328 900.482,4 -4,4"/>
<!-- main -->
<g id="node1" class="node"><title>main</title>
<ellipse fill="none" stroke="black" cx="448.19" cy="-306" rx="27.8951" ry="18"/>
<text text-anchor="middle" x="448.19" y="-302.3" font-family="Times New Roman,serif" font-size="14.00">main</text>
</g>
<!-- getInternalHexFromDouble -->
<g id="node2" class="node"><title>getInternalHexFromDouble</title>
<ellipse fill="none" stroke="black" cx="109.19" cy="-234" rx="109.381" ry="18"/>
<text text-anchor="middle" x="109.19" y="-230.3" font-family="Times New Roman,serif" font-size="14.00">getInternalHexFromDouble</text>
</g>
<!-- main&#45;&gt;getInternalHexFromDouble -->
<g id="edge1" class="edge"><title>main&#45;&gt;getInternalHexFromDouble</title>
<path fill="none" stroke="black" d="M421.872,-299.565C371.475,-289.159 259.674,-266.073 184.348,-250.519"/>
<polygon fill="black" stroke="black" points="184.933,-247.066 174.432,-248.472 183.517,-253.922 184.933,-247.066"/>
</g>
<!-- getInternalHexFromFloat -->
<g id="node7" class="node"><title>getInternalHexFromFloat</title>
<ellipse fill="none" stroke="black" cx="338.19" cy="-234" rx="101.282" ry="18"/>
<text text-anchor="middle" x="338.19" y="-230.3" font-family="Times New Roman,serif" font-size="14.00">getInternalHexFromFloat</text>
</g>
<!-- main&#45;&gt;getInternalHexFromFloat -->
<g id="edge6" class="edge"><title>main&#45;&gt;getInternalHexFromFloat</title>
<path fill="none" stroke="black" d="M429.03,-292.807C413.513,-282.933 391.256,-268.769 372.657,-256.933"/>
<polygon fill="black" stroke="black" points="374.453,-253.927 364.137,-251.511 370.694,-259.833 374.453,-253.927"/>
</g>
<!-- getInternalHexFromLong -->
<g id="node8" class="node"><title>getInternalHexFromLong</title>
<ellipse fill="none" stroke="black" cx="559.19" cy="-234" rx="102.082" ry="18"/>
<text text-anchor="middle" x="559.19" y="-230.3" font-family="Times New Roman,serif" font-size="14.00">getInternalHexFromLong</text>
</g>
<!-- main&#45;&gt;getInternalHexFromLong -->
<g id="edge8" class="edge"><title>main&#45;&gt;getInternalHexFromLong</title>
<path fill="none" stroke="black" d="M467.525,-292.807C483.183,-282.933 505.642,-268.769 524.41,-256.933"/>
<polygon fill="black" stroke="black" points="526.416,-259.806 533.008,-251.511 522.682,-253.885 526.416,-259.806"/>
</g>
<!-- printCursorInLine -->
<g id="node9" class="node"><title>printCursorInLine</title>
<ellipse fill="none" stroke="black" cx="754.19" cy="-234" rx="75.2868" ry="18"/>
<text text-anchor="middle" x="754.19" y="-230.3" font-family="Times New Roman,serif" font-size="14.00">printCursorInLine</text>
</g>
<!-- main&#45;&gt;printCursorInLine -->
<g id="edge10" class="edge"><title>main&#45;&gt;printCursorInLine</title>
<path fill="none" stroke="black" d="M474.016,-299.092C521.71,-288.182 624.838,-264.59 691.789,-249.275"/>
<polygon fill="black" stroke="black" points="692.834,-252.626 701.802,-246.984 691.273,-245.803 692.834,-252.626"/>
</g>
<!-- getInternalHexFromOperand -->
<g id="node3" class="node"><title>getInternalHexFromOperand</title>
<ellipse fill="none" stroke="black" cx="338.19" cy="-162" rx="114.28" ry="18"/>
<text text-anchor="middle" x="338.19" y="-158.3" font-family="Times New Roman,serif" font-size="14.00">getInternalHexFromOperand</text>
</g>
<!-- getInternalHexFromDouble&#45;&gt;getInternalHexFromOperand -->
<g id="edge2" class="edge"><title>getInternalHexFromDouble&#45;&gt;getInternalHexFromOperand</title>
<path fill="none" stroke="black" d="M158.598,-217.897C193.721,-207.161 241.081,-192.684 278.348,-181.292"/>
<polygon fill="black" stroke="black" points="279.541,-184.588 288.081,-178.317 277.494,-177.894 279.541,-184.588"/>
</g>
<!-- isBigEndian -->
<g id="node4" class="node"><title>isBigEndian</title>
<ellipse fill="none" stroke="black" cx="454.19" cy="-90" rx="53.8905" ry="18"/>
<text text-anchor="middle" x="454.19" y="-86.3" font-family="Times New Roman,serif" font-size="14.00">isBigEndian</text>
</g>
<!-- getInternalHexFromOperand&#45;&gt;isBigEndian -->
<g id="edge3" class="edge"><title>getInternalHexFromOperand&#45;&gt;isBigEndian</title>
<path fill="none" stroke="black" d="M365.681,-144.411C382.112,-134.496 403.11,-121.824 420.53,-111.312"/>
<polygon fill="black" stroke="black" points="422.516,-114.202 429.27,-106.038 418.9,-108.208 422.516,-114.202"/>
</g>
<!-- writeHexfromChar -->
<g id="node5" class="node"><title>writeHexfromChar</title>
<ellipse fill="none" stroke="black" cx="304.19" cy="-90" rx="77.9862" ry="18"/>
<text text-anchor="middle" x="304.19" y="-86.3" font-family="Times New Roman,serif" font-size="14.00">writeHexfromChar</text>
</g>
<!-- getInternalHexFromOperand&#45;&gt;writeHexfromChar -->
<g id="edge4" class="edge"><title>getInternalHexFromOperand&#45;&gt;writeHexfromChar</title>
<path fill="none" stroke="black" d="M329.786,-143.697C325.916,-135.728 321.239,-126.1 316.947,-117.264"/>
<polygon fill="black" stroke="black" points="320.016,-115.57 312.498,-108.104 313.719,-118.629 320.016,-115.57"/>
</g>
<!-- getCharFrom4Bits -->
<g id="node6" class="node"><title>getCharFrom4Bits</title>
<ellipse fill="none" stroke="black" cx="304.19" cy="-18" rx="77.1866" ry="18"/>
<text text-anchor="middle" x="304.19" y="-14.3" font-family="Times New Roman,serif" font-size="14.00">getCharFrom4Bits</text>
</g>
<!-- writeHexfromChar&#45;&gt;getCharFrom4Bits -->
<g id="edge5" class="edge"><title>writeHexfromChar&#45;&gt;getCharFrom4Bits</title>
<path fill="none" stroke="black" d="M304.19,-71.6966C304.19,-63.9827 304.19,-54.7125 304.19,-46.1124"/>
<polygon fill="black" stroke="black" points="307.69,-46.1043 304.19,-36.1043 300.69,-46.1044 307.69,-46.1043"/>
</g>
<!-- getInternalHexFromFloat&#45;&gt;getInternalHexFromOperand -->
<g id="edge7" class="edge"><title>getInternalHexFromFloat&#45;&gt;getInternalHexFromOperand</title>
<path fill="none" stroke="black" d="M338.19,-215.697C338.19,-207.983 338.19,-198.712 338.19,-190.112"/>
<polygon fill="black" stroke="black" points="341.69,-190.104 338.19,-180.104 334.69,-190.104 341.69,-190.104"/>
</g>
<!-- getInternalHexFromLong&#45;&gt;getInternalHexFromOperand -->
<g id="edge9" class="edge"><title>getInternalHexFromLong&#45;&gt;getInternalHexFromOperand</title>
<path fill="none" stroke="black" d="M511.78,-217.983C478.044,-207.298 432.51,-192.875 396.541,-181.482"/>
<polygon fill="black" stroke="black" points="397.257,-178.038 386.667,-178.355 395.144,-184.711 397.257,-178.038"/>
</g>
<!-- setInternalHexToOperand -->
<g id="node10" class="node"><title>setInternalHexToOperand</title>
<ellipse fill="none" stroke="black" cx="610.19" cy="-162" rx="104.782" ry="18"/>
<text text-anchor="middle" x="610.19" y="-158.3" font-family="Times New Roman,serif" font-size="14.00">setInternalHexToOperand</text>
</g>
<!-- setInternalHexToOperand&#45;&gt;isBigEndian -->
<g id="edge13" class="edge"><title>setInternalHexToOperand&#45;&gt;isBigEndian</title>
<path fill="none" stroke="black" d="M574.401,-144.941C550.472,-134.203 518.958,-120.062 494.2,-108.953"/>
<polygon fill="black" stroke="black" points="495.629,-105.758 485.072,-104.857 492.763,-112.144 495.629,-105.758"/>
</g>
<!-- checkNumeralString -->
<g id="node11" class="node"><title>checkNumeralString</title>
<ellipse fill="none" stroke="black" cx="610.19" cy="-90" rx="83.6854" ry="18"/>
<text text-anchor="middle" x="610.19" y="-86.3" font-family="Times New Roman,serif" font-size="14.00">checkNumeralString</text>
</g>
<!-- setInternalHexToOperand&#45;&gt;checkNumeralString -->
<g id="edge11" class="edge"><title>setInternalHexToOperand&#45;&gt;checkNumeralString</title>
<path fill="none" stroke="black" d="M610.19,-143.697C610.19,-135.983 610.19,-126.712 610.19,-118.112"/>
<polygon fill="black" stroke="black" points="613.69,-118.104 610.19,-108.104 606.69,-118.104 613.69,-118.104"/>
</g>
<!-- get4BitsFromHexChar -->
<g id="node12" class="node"><title>get4BitsFromHexChar</title>
<ellipse fill="none" stroke="black" cx="804.19" cy="-90" rx="92.0841" ry="18"/>
<text text-anchor="middle" x="804.19" y="-86.3" font-family="Times New Roman,serif" font-size="14.00">get4BitsFromHexChar</text>
</g>
<!-- setInternalHexToOperand&#45;&gt;get4BitsFromHexChar -->
<g id="edge12" class="edge"><title>setInternalHexToOperand&#45;&gt;get4BitsFromHexChar</title>
<path fill="none" stroke="black" d="M653.245,-145.465C682.557,-134.888 721.505,-120.835 752.496,-109.653"/>
<polygon fill="black" stroke="black" points="754.037,-112.817 762.256,-106.131 751.661,-106.233 754.037,-112.817"/>
</g>
</g>
</svg>
